<?xml version="1.0" encoding="UTF-8" standalone="no"?>
<!-- Created with Inkscape (http://www.inkscape.org/) -->

<svg
   xmlns:dc="http://purl.org/dc/elements/1.1/"
   xmlns:cc="http://creativecommons.org/ns#"
   xmlns:rdf="http://www.w3.org/1999/02/22-rdf-syntax-ns#"
   xmlns:svg="http://www.w3.org/2000/svg"
   xmlns="http://www.w3.org/2000/svg"
   xmlns:sodipodi="http://sodipodi.sourceforge.net/DTD/sodipodi-0.dtd"
   xmlns:inkscape="http://www.inkscape.org/namespaces/inkscape"
   viewBox="0 0 220 312"
   id="svg2"
   version="1.1"
   inkscape:version="0.48.3.1 r9886"
   sodipodi:docname="card_wild.svg"
   width="100%"
   height="100%">
  <sodipodi:namedview
     id="base"
     pagecolor="#ffffff"
     bordercolor="#666666"
     borderopacity="1.0"
     inkscape:pageopacity="0.0"
     inkscape:pageshadow="2"
     inkscape:zoom="0.93976888"
     inkscape:cx="511.40418"
     inkscape:cy="103.04458"
     inkscape:document-units="px"
     inkscape:current-layer="layer1"
     showgrid="false"
     inkscape:window-width="1600"
     inkscape:window-height="804"
     inkscape:window-x="-2"
     inkscape:window-y="32"
     inkscape:window-maximized="1" />
  <defs
     id="defs4">
    <linearGradient
       id="linearGradient4970">
      <stop
         style="stop-color:#ff0000;stop-opacity:1;"
         offset="0"
         id="stop4972" />
      <stop
         id="stop5040"
         offset="0.150931"
         style="stop-color:#ffbc00;stop-opacity:0.98431373;" />
      <stop
         id="stop5038"
         offset="0.28944007"
         style="stop-color:#80ff00;stop-opacity:1;" />
      <stop
         id="stop5036"
         offset="0.42640635"
         style="stop-color:#00ff42;stop-opacity:1;" />
      <stop
         id="stop5034"
         offset="0.55919808"
         style="stop-color:#00ffff;stop-opacity:1;" />
      <stop
         id="stop5032"
         offset="0.69480455"
         style="stop-color:#0040ff;stop-opacity:1;" />
      <stop
         id="stop5030"
         offset="0.83907533"
         style="stop-color:#8400ff;stop-opacity:1;" />
      <stop
         style="stop-color:#ff00b1;stop-opacity:1;"
         offset="1"
         id="stop4974" />
    </linearGradient>
    <pattern
       patternUnits="userSpaceOnUse"
       patternTransform="translate(29.300901,30.525458)"
       height="257.11764"
       width="164.60102"
       id="Voronoi5548">
      <path
         id="path14550"
         d="M 90.999742,0.708718 91.850000,0.000000"
         style="stroke:#000000" />
      <path
         id="path14552"
         d="M 138.829571,0.000000 140.884504,2.903616"
         style="stroke:#000000" />
      <path
         id="path14554"
         d="M 140.884504,2.903616 149.450568,3.029912"
         style="stroke:#000000" />
      <path
         id="path14556"
         d="M 149.093618,0.000000 149.450568,3.029912"
         style="stroke:#000000" />
      <path
         id="path14558"
         d="M 50.777208,0.000000 55.840802,2.642762"
         style="stroke:#000000" />
      <path
         id="path14560"
         d="M 118.207281,0.000000 120.084942,6.721560"
         style="stroke:#000000" />
      <path
         id="path14562"
         d="M 120.084942,6.721560 127.863230,7.315467"
         style="stroke:#000000" />
      <path
         id="path14564"
         d="M 127.863230,7.315467 129.916694,0.000000"
         style="stroke:#000000" />
      <path
         id="path14566"
         d="M 86.909477,0.000000 90.999742,0.708718"
         style="stroke:#000000" />
      <path
         id="path14568"
         d="M 158.345176,5.889630 162.640237,0.000000"
         style="stroke:#000000" />
      <path
         id="path14570"
         d="M 132.583985,9.454524 140.884504,2.903616"
         style="stroke:#000000" />
      <path
         id="path14572"
         d="M 127.863230,7.315467 130.331371,9.165670"
         style="stroke:#000000" />
      <path
         id="path14574"
         d="M 130.331371,9.165670 132.583985,9.454524"
         style="stroke:#000000" />
      <path
         id="path14576"
         d="M 149.450568,3.029912 154.131234,7.782345"
         style="stroke:#000000" />
      <path
         id="path14578"
         d="M 154.131234,7.782345 158.345176,5.889630"
         style="stroke:#000000" />
      <path
         id="path14580"
         d="M 47.605330,16.074396 55.840802,2.642762"
         style="stroke:#000000" />
      <path
         id="path14582"
         d="M 34.409583,10.961119 47.605330,16.074396"
         style="stroke:#000000" />
      <path
         id="path14584"
         d="M 103.720592,11.196675 105.680338,0.000000"
         style="stroke:#000000" />
      <path
         id="path14586"
         d="M 26.328413,1.540131 26.572948,0.000000"
         style="stroke:#000000" />
      <path
         id="path14588"
         d="M 26.328413,1.540131 34.409583,10.961119"
         style="stroke:#000000" />
      <path
         id="path14590"
         d="M 90.999742,0.708718 101.612081,11.914797"
         style="stroke:#000000" />
      <path
         id="path14592"
         d="M 101.612081,11.914797 103.720592,11.196675"
         style="stroke:#000000" />
      <path
         id="path14594"
         d="M 103.720592,11.196675 113.111877,13.266994"
         style="stroke:#000000" />
      <path
         id="path14596"
         d="M 113.111877,13.266994 120.084942,6.721560"
         style="stroke:#000000" />
      <path
         id="path14598"
         d="M 100.447383,13.392304 101.612081,11.914797"
         style="stroke:#000000" />
      <path
         id="path14600"
         d="M 55.840802,2.642762 70.104047,4.911512"
         style="stroke:#000000" />
      <path
         id="path14602"
         d="M 70.104047,4.911512 73.061630,0.000000"
         style="stroke:#000000" />
      <path
         id="path14604"
         d="M 0.000000,8.752713 11.849804,14.175958"
         style="stroke:#000000" />
      <path
         id="path14606"
         d="M 158.345176,5.889630 164.601020,8.752713"
         style="stroke:#000000" />
      <path
         id="path14608"
         d="M 11.849804,14.175958 21.328711,9.717823"
         style="stroke:#000000" />
      <path
         id="path14610"
         d="M 21.328711,9.717823 26.328413,1.540131"
         style="stroke:#000000" />
      <path
         id="path14612"
         d="M 84.495686,17.637162 100.447383,13.392304"
         style="stroke:#000000" />
      <path
         id="path14614"
         d="M 47.605330,16.074396 49.355991,23.283676"
         style="stroke:#000000" />
      <path
         id="path14616"
         d="M 49.355991,23.283676 72.134010,16.290162"
         style="stroke:#000000" />
      <path
         id="path14618"
         d="M 70.104047,4.911512 72.134010,16.290162"
         style="stroke:#000000" />
      <path
         id="path14620"
         d="M 72.134010,16.290162 72.872538,17.638154"
         style="stroke:#000000" />
      <path
         id="path14622"
         d="M 72.872538,17.638154 84.495686,17.637162"
         style="stroke:#000000" />
      <path
         id="path14624"
         d="M 132.583985,9.454524 147.182355,23.839853"
         style="stroke:#000000" />
      <path
         id="path14626"
         d="M 147.182355,23.839853 150.134503,24.173024"
         style="stroke:#000000" />
      <path
         id="path14628"
         d="M 150.134503,24.173024 154.131234,7.782345"
         style="stroke:#000000" />
      <path
         id="path14630"
         d="M 84.495686,17.637162 100.143568,31.631635"
         style="stroke:#000000" />
      <path
         id="path14632"
         d="M 100.143568,31.631635 100.447383,13.392304"
         style="stroke:#000000" />
      <path
         id="path14634"
         d="M 43.874134,31.236983 49.355991,23.283676"
         style="stroke:#000000" />
      <path
         id="path14636"
         d="M 43.874134,31.236983 49.441646,33.808426"
         style="stroke:#000000" />
      <path
         id="path14638"
         d="M 72.872538,17.638154 73.295731,27.731936"
         style="stroke:#000000" />
      <path
         id="path14640"
         d="M 73.295731,27.731936 87.451097,34.995672"
         style="stroke:#000000" />
      <path
         id="path14642"
         d="M 34.409583,10.961119 42.409573,31.610761"
         style="stroke:#000000" />
      <path
         id="path14644"
         d="M 42.409573,31.610761 43.874134,31.236983"
         style="stroke:#000000" />
      <path
         id="path14646"
         d="M 124.455526,30.510854 130.331371,9.165670"
         style="stroke:#000000" />
      <path
         id="path14648"
         d="M 124.455526,30.510854 147.182355,23.839853"
         style="stroke:#000000" />
      <path
         id="path14650"
         d="M 0.000000,30.780200 11.849804,14.175958"
         style="stroke:#000000" />
      <path
         id="path14652"
         d="M 163.899828,31.762727 164.601020,30.780200"
         style="stroke:#000000" />
      <path
         id="path14654"
         d="M 150.134503,24.173024 155.150458,30.446607"
         style="stroke:#000000" />
      <path
         id="path14656"
         d="M 87.451097,34.995672 100.862745,34.940951"
         style="stroke:#000000" />
      <path
         id="path14658"
         d="M 100.143568,31.631635 100.862745,34.940951"
         style="stroke:#000000" />
      <path
         id="path14660"
         d="M 37.719384,35.188135 42.409573,31.610761"
         style="stroke:#000000" />
      <path
         id="path14662"
         d="M 155.150458,30.446607 160.746715,32.031701"
         style="stroke:#000000" />
      <path
         id="path14664"
         d="M 160.746715,32.031701 163.899828,31.762727"
         style="stroke:#000000" />
      <path
         id="path14666"
         d="M 21.328711,9.717823 25.955405,35.106076"
         style="stroke:#000000" />
      <path
         id="path14668"
         d="M 25.955405,35.106076 37.719384,35.188135"
         style="stroke:#000000" />
      <path
         id="path14670"
         d="M 113.111877,13.266994 121.048273,32.799755"
         style="stroke:#000000" />
      <path
         id="path14672"
         d="M 121.048273,32.799755 124.455526,30.510854"
         style="stroke:#000000" />
      <path
         id="path14674"
         d="M 100.862745,34.940951 104.174720,37.556474"
         style="stroke:#000000" />
      <path
         id="path14676"
         d="M 103.330189,39.278048 104.174720,37.556474"
         style="stroke:#000000" />
      <path
         id="path14678"
         d="M 37.719384,35.188135 41.071020,45.841343"
         style="stroke:#000000" />
      <path
         id="path14680"
         d="M 66.630166,39.210086 73.295731,27.731936"
         style="stroke:#000000" />
      <path
         id="path14682"
         d="M 49.441646,33.808426 64.568334,40.315716"
         style="stroke:#000000" />
      <path
         id="path14684"
         d="M 64.568334,40.315716 66.630166,39.210086"
         style="stroke:#000000" />
      <path
         id="path14686"
         d="M 104.174720,37.556474 119.049846,37.168572"
         style="stroke:#000000" />
      <path
         id="path14688"
         d="M 119.049846,37.168572 121.048273,32.799755"
         style="stroke:#000000" />
      <path
         id="path14690"
         d="M 41.071020,45.841343 43.220575,49.039523"
         style="stroke:#000000" />
      <path
         id="path14692"
         d="M 0.000000,32.118976 18.102662,41.316253"
         style="stroke:#000000" />
      <path
         id="path14694"
         d="M 18.102662,41.316253 25.955405,35.106076"
         style="stroke:#000000" />
      <path
         id="path14696"
         d="M 119.049846,37.168572 121.529901,41.910658"
         style="stroke:#000000" />
      <path
         id="path14698"
         d="M 43.220575,49.039523 49.485291,51.315092"
         style="stroke:#000000" />
      <path
         id="path14700"
         d="M 49.441646,33.808426 49.485291,51.315092"
         style="stroke:#000000" />
      <path
         id="path14702"
         d="M 102.792622,55.798557 103.330189,39.278048"
         style="stroke:#000000" />
      <path
         id="path14704"
         d="M 160.746715,32.031701 161.929006,53.813520"
         style="stroke:#000000" />
      <path
         id="path14706"
         d="M 101.999668,56.643401 102.792622,55.798557"
         style="stroke:#000000" />
      <path
         id="path14708"
         d="M 141.488708,50.322122 155.150458,30.446607"
         style="stroke:#000000" />
      <path
         id="path14710"
         d="M 102.792622,55.798557 114.809762,57.431533"
         style="stroke:#000000" />
      <path
         id="path14712"
         d="M 114.809762,57.431533 121.529901,41.910658"
         style="stroke:#000000" />
      <path
         id="path14714"
         d="M 121.529901,41.910658 136.490875,51.766401"
         style="stroke:#000000" />
      <path
         id="path14716"
         d="M 136.490875,51.766401 141.488708,50.322122"
         style="stroke:#000000" />
      <path
         id="path14718"
         d="M 141.488708,50.322122 153.269352,57.845311"
         style="stroke:#000000" />
      <path
         id="path14720"
         d="M 49.485291,51.315092 57.207026,54.388956"
         style="stroke:#000000" />
      <path
         id="path14722"
         d="M 57.207026,54.388956 64.568334,40.315716"
         style="stroke:#000000" />
      <path
         id="path14724"
         d="M 66.630166,39.210086 83.754745,55.261170"
         style="stroke:#000000" />
      <path
         id="path14726"
         d="M 83.754745,55.261170 87.451097,34.995672"
         style="stroke:#000000" />
      <path
         id="path14728"
         d="M 153.269352,57.845311 156.691263,58.804289"
         style="stroke:#000000" />
      <path
         id="path14730"
         d="M 156.691263,58.804289 161.929006,53.813520"
         style="stroke:#000000" />
      <path
         id="path14732"
         d="M 85.428507,56.141889 103.330189,39.278048"
         style="stroke:#000000" />
      <path
         id="path14734"
         d="M 83.754745,55.261170 84.069546,55.854381"
         style="stroke:#000000" />
      <path
         id="path14736"
         d="M 84.069546,55.854381 85.428507,56.141889"
         style="stroke:#000000" />
      <path
         id="path14738"
         d="M 85.428507,56.141889 90.907741,60.369756"
         style="stroke:#000000" />
      <path
         id="path14740"
         d="M 90.907741,60.369756 101.999668,56.643401"
         style="stroke:#000000" />
      <path
         id="path14742"
         d="M 0.000000,54.028018 17.939878,55.468155"
         style="stroke:#000000" />
      <path
         id="path14744"
         d="M 17.939878,55.468155 18.102662,41.316253"
         style="stroke:#000000" />
      <path
         id="path14746"
         d="M 156.691263,58.804289 158.603328,63.743580"
         style="stroke:#000000" />
      <path
         id="path14748"
         d="M 134.368175,62.282390 136.490875,51.766401"
         style="stroke:#000000" />
      <path
         id="path14750"
         d="M 145.521165,69.036287 153.269352,57.845311"
         style="stroke:#000000" />
      <path
         id="path14752"
         d="M 57.207026,54.388956 58.055508,61.383310"
         style="stroke:#000000" />
      <path
         id="path14754"
         d="M 134.368175,62.282390 140.833989,69.180234"
         style="stroke:#000000" />
      <path
         id="path14756"
         d="M 140.833989,69.180234 145.521165,69.036287"
         style="stroke:#000000" />
      <path
         id="path14758"
         d="M 17.939878,55.468155 19.688755,59.875335"
         style="stroke:#000000" />
      <path
         id="path14760"
         d="M 19.688755,59.875335 41.071020,45.841343"
         style="stroke:#000000" />
      <path
         id="path14762"
         d="M 58.055508,61.383310 73.319773,65.824913"
         style="stroke:#000000" />
      <path
         id="path14764"
         d="M 73.319773,65.824913 84.069546,55.854381"
         style="stroke:#000000" />
      <path
         id="path14766"
         d="M 145.521165,69.036287 153.850600,73.715130"
         style="stroke:#000000" />
      <path
         id="path14768"
         d="M 153.850600,73.715130 158.603328,63.743580"
         style="stroke:#000000" />
      <path
         id="path14770"
         d="M 73.319773,65.824913 75.963349,76.487471"
         style="stroke:#000000" />
      <path
         id="path14772"
         d="M 19.688755,59.875335 21.659252,67.965509"
         style="stroke:#000000" />
      <path
         id="path14774"
         d="M 21.659252,67.965509 30.744944,70.309097"
         style="stroke:#000000" />
      <path
         id="path14776"
         d="M 30.744944,70.309097 43.220575,49.039523"
         style="stroke:#000000" />
      <path
         id="path14778"
         d="M 161.929006,53.813520 164.601020,54.028018"
         style="stroke:#000000" />
      <path
         id="path14780"
         d="M 163.899828,31.762727 164.601020,32.118976"
         style="stroke:#000000" />
      <path
         id="path14782"
         d="M 158.603328,63.743580 164.601020,66.542904"
         style="stroke:#000000" />
      <path
         id="path14784"
         d="M 0.000000,66.542904 15.141489,73.609944"
         style="stroke:#000000" />
      <path
         id="path14786"
         d="M 15.141489,73.609944 21.659252,67.965509"
         style="stroke:#000000" />
      <path
         id="path14788"
         d="M 72.221282,82.695299 75.963349,76.487471"
         style="stroke:#000000" />
      <path
         id="path14790"
         d="M 75.963349,76.487471 98.257184,78.775820"
         style="stroke:#000000" />
      <path
         id="path14792"
         d="M 90.907741,60.369756 98.257184,78.775820"
         style="stroke:#000000" />
      <path
         id="path14794"
         d="M 114.809762,57.431533 116.214700,76.912341"
         style="stroke:#000000" />
      <path
         id="path14796"
         d="M 116.214700,76.912341 134.368175,62.282390"
         style="stroke:#000000" />
      <path
         id="path14798"
         d="M 30.744944,70.309097 44.413029,78.172983"
         style="stroke:#000000" />
      <path
         id="path14800"
         d="M 44.413029,78.172983 58.055508,61.383310"
         style="stroke:#000000" />
      <path
         id="path14802"
         d="M 55.022488,85.488446 72.221282,82.695299"
         style="stroke:#000000" />
      <path
         id="path14804"
         d="M 44.413029,78.172983 45.475197,81.088983"
         style="stroke:#000000" />
      <path
         id="path14806"
         d="M 45.475197,81.088983 55.022488,85.488446"
         style="stroke:#000000" />
      <path
         id="path14808"
         d="M 101.999668,56.643401 113.186210,82.051979"
         style="stroke:#000000" />
      <path
         id="path14810"
         d="M 113.186210,82.051979 113.788894,82.002451"
         style="stroke:#000000" />
      <path
         id="path14812"
         d="M 113.788894,82.002451 116.214700,76.912341"
         style="stroke:#000000" />
      <path
         id="path14814"
         d="M 98.257184,78.775820 104.266805,83.657427"
         style="stroke:#000000" />
      <path
         id="path14816"
         d="M 104.266805,83.657427 105.303703,83.713719"
         style="stroke:#000000" />
      <path
         id="path14818"
         d="M 105.303703,83.713719 113.186210,82.051979"
         style="stroke:#000000" />
      <path
         id="path14820"
         d="M 113.788894,82.002451 119.211646,86.366741"
         style="stroke:#000000" />
      <path
         id="path14822"
         d="M 72.221282,82.695299 79.018720,96.078375"
         style="stroke:#000000" />
      <path
         id="path14824"
         d="M 139.868205,91.440438 140.833989,69.180234"
         style="stroke:#000000" />
      <path
         id="path14826"
         d="M 70.714998,101.355045 79.018720,96.078375"
         style="stroke:#000000" />
      <path
         id="path14828"
         d="M 139.868205,91.440438 156.378397,90.896036"
         style="stroke:#000000" />
      <path
         id="path14830"
         d="M 153.850600,73.715130 156.378397,90.896036"
         style="stroke:#000000" />
      <path
         id="path14832"
         d="M 55.022488,85.488446 62.840014,101.767269"
         style="stroke:#000000" />
      <path
         id="path14834"
         d="M 62.840014,101.767269 70.714998,101.355045"
         style="stroke:#000000" />
      <path
         id="path14836"
         d="M 79.018720,96.078375 87.073397,98.285640"
         style="stroke:#000000" />
      <path
         id="path14838"
         d="M 87.073397,98.285640 104.266805,83.657427"
         style="stroke:#000000" />
      <path
         id="path14840"
         d="M 134.175445,93.473396 139.868205,91.440438"
         style="stroke:#000000" />
      <path
         id="path14842"
         d="M 119.211646,86.366741 132.072233,93.955041"
         style="stroke:#000000" />
      <path
         id="path14844"
         d="M 132.072233,93.955041 134.175445,93.473396"
         style="stroke:#000000" />
      <path
         id="path14846"
         d="M 111.838153,109.480668 119.211646,86.366741"
         style="stroke:#000000" />
      <path
         id="path14848"
         d="M 36.579335,100.937408 45.475197,81.088983"
         style="stroke:#000000" />
      <path
         id="path14850"
         d="M 0.000000,94.108673 3.178909,95.350696"
         style="stroke:#000000" />
      <path
         id="path14852"
         d="M 3.178909,95.350696 15.141489,73.609944"
         style="stroke:#000000" />
      <path
         id="path14854"
         d="M 156.378397,90.896036 164.601020,94.108673"
         style="stroke:#000000" />
      <path
         id="path14856"
         d="M 111.838153,109.480668 129.696309,108.632460"
         style="stroke:#000000" />
      <path
         id="path14858"
         d="M 129.696309,108.632460 132.072233,93.955041"
         style="stroke:#000000" />
      <path
         id="path14860"
         d="M 104.587882,114.100036 105.303703,83.713719"
         style="stroke:#000000" />
      <path
         id="path14862"
         d="M 104.587882,114.100036 105.271904,114.427899"
         style="stroke:#000000" />
      <path
         id="path14864"
         d="M 105.271904,114.427899 111.838153,109.480668"
         style="stroke:#000000" />
      <path
         id="path14866"
         d="M 3.178909,95.350696 7.022620,103.812688"
         style="stroke:#000000" />
      <path
         id="path14868"
         d="M 7.022620,103.812688 36.579335,100.937408"
         style="stroke:#000000" />
      <path
         id="path14870"
         d="M 87.073397,98.285640 89.499337,115.192755"
         style="stroke:#000000" />
      <path
         id="path14872"
         d="M 89.499337,115.192755 104.587882,114.100036"
         style="stroke:#000000" />
      <path
         id="path14874"
         d="M 36.579335,100.937408 45.547883,115.209206"
         style="stroke:#000000" />
      <path
         id="path14876"
         d="M 129.696309,108.632460 130.178916,117.424991"
         style="stroke:#000000" />
      <path
         id="path14878"
         d="M 70.714998,101.355045 76.356003,120.214610"
         style="stroke:#000000" />
      <path
         id="path14880"
         d="M 105.271904,114.427899 111.470569,122.193267"
         style="stroke:#000000" />
      <path
         id="path14882"
         d="M 5.874742,111.171305 7.022620,103.812688"
         style="stroke:#000000" />
      <path
         id="path14884"
         d="M 76.356003,120.214610 85.158228,120.134548"
         style="stroke:#000000" />
      <path
         id="path14886"
         d="M 85.158228,120.134548 85.987461,120.045909"
         style="stroke:#000000" />
      <path
         id="path14888"
         d="M 85.987461,120.045909 89.499337,115.192755"
         style="stroke:#000000" />
      <path
         id="path14890"
         d="M 45.547883,115.209206 52.880386,118.112372"
         style="stroke:#000000" />
      <path
         id="path14892"
         d="M 52.880386,118.112372 62.840014,101.767269"
         style="stroke:#000000" />
      <path
         id="path14894"
         d="M 31.206312,125.861164 45.547883,115.209206"
         style="stroke:#000000" />
      <path
         id="path14896"
         d="M 67.487575,123.492994 76.356003,120.214610"
         style="stroke:#000000" />
      <path
         id="path14898"
         d="M 52.880386,118.112372 53.973099,119.562412"
         style="stroke:#000000" />
      <path
         id="path14900"
         d="M 53.973099,119.562412 54.407522,119.942689"
         style="stroke:#000000" />
      <path
         id="path14902"
         d="M 54.407522,119.942689 67.487575,123.492994"
         style="stroke:#000000" />
      <path
         id="path14904"
         d="M 0.000000,115.353688 5.874742,111.171305"
         style="stroke:#000000" />
      <path
         id="path14906"
         d="M 134.175445,93.473396 154.586954,122.482966"
         style="stroke:#000000" />
      <path
         id="path14908"
         d="M 154.586954,122.482966 164.601020,115.353688"
         style="stroke:#000000" />
      <path
         id="path14910"
         d="M 130.178916,117.424991 153.284125,123.727592"
         style="stroke:#000000" />
      <path
         id="path14912"
         d="M 153.284125,123.727592 154.586954,122.482966"
         style="stroke:#000000" />
      <path
         id="path14914"
         d="M 5.874742,111.171305 16.339890,126.618197"
         style="stroke:#000000" />
      <path
         id="path14916"
         d="M 16.339890,126.618197 31.206312,125.861164"
         style="stroke:#000000" />
      <path
         id="path14918"
         d="M 111.470569,122.193267 121.641979,128.099441"
         style="stroke:#000000" />
      <path
         id="path14920"
         d="M 121.641979,128.099441 130.178916,117.424991"
         style="stroke:#000000" />
      <path
         id="path14922"
         d="M 85.987461,120.045909 92.792223,134.741799"
         style="stroke:#000000" />
      <path
         id="path14924"
         d="M 92.792223,134.741799 111.470569,122.193267"
         style="stroke:#000000" />
      <path
         id="path14926"
         d="M 151.733917,134.017922 153.284125,123.727592"
         style="stroke:#000000" />
      <path
         id="path14928"
         d="M 31.206312,125.861164 38.438712,139.983943"
         style="stroke:#000000" />
      <path
         id="path14930"
         d="M 38.438712,139.983943 53.973099,119.562412"
         style="stroke:#000000" />
      <path
         id="path14932"
         d="M 73.543149,143.978754 85.158228,120.134548"
         style="stroke:#000000" />
      <path
         id="path14934"
         d="M 67.487575,123.492994 71.242560,143.754838"
         style="stroke:#000000" />
      <path
         id="path14936"
         d="M 71.242560,143.754838 73.543149,143.978754"
         style="stroke:#000000" />
      <path
         id="path14938"
         d="M 38.438712,139.983943 38.884541,146.696322"
         style="stroke:#000000" />
      <path
         id="path14940"
         d="M 14.505674,147.607233 16.339890,126.618197"
         style="stroke:#000000" />
      <path
         id="path14942"
         d="M 151.733917,134.017922 164.601020,141.414405"
         style="stroke:#000000" />
      <path
         id="path14944"
         d="M 0.000000,141.414405 12.470498,148.582905"
         style="stroke:#000000" />
      <path
         id="path14946"
         d="M 12.470498,148.582905 14.505674,147.607233"
         style="stroke:#000000" />
      <path
         id="path14948"
         d="M 38.884541,146.696322 53.728062,150.703620"
         style="stroke:#000000" />
      <path
         id="path14950"
         d="M 53.728062,150.703620 54.407522,119.942689"
         style="stroke:#000000" />
      <path
         id="path14952"
         d="M 121.641979,128.099441 122.315652,145.499487"
         style="stroke:#000000" />
      <path
         id="path14954"
         d="M 122.315652,145.499487 139.664828,149.099575"
         style="stroke:#000000" />
      <path
         id="path14956"
         d="M 139.664828,149.099575 139.864171,149.092912"
         style="stroke:#000000" />
      <path
         id="path14958"
         d="M 139.864171,149.092912 151.733917,134.017922"
         style="stroke:#000000" />
      <path
         id="path14960"
         d="M 14.505674,147.607233 25.217378,152.361362"
         style="stroke:#000000" />
      <path
         id="path14962"
         d="M 25.217378,152.361362 38.884541,146.696322"
         style="stroke:#000000" />
      <path
         id="path14964"
         d="M 73.543149,143.978754 94.466812,148.726858"
         style="stroke:#000000" />
      <path
         id="path14966"
         d="M 92.792223,134.741799 94.466812,148.726858"
         style="stroke:#000000" />
      <path
         id="path14968"
         d="M 139.864171,149.092912 145.055872,153.607219"
         style="stroke:#000000" />
      <path
         id="path14970"
         d="M 53.728062,150.703620 56.846332,153.527057"
         style="stroke:#000000" />
      <path
         id="path14972"
         d="M 56.846332,153.527057 71.242560,143.754838"
         style="stroke:#000000" />
      <path
         id="path14974"
         d="M 0.000000,160.697365 1.130051,161.107299"
         style="stroke:#000000" />
      <path
         id="path14976"
         d="M 1.130051,161.107299 12.470498,148.582905"
         style="stroke:#000000" />
      <path
         id="path14978"
         d="M 145.055872,153.607219 164.601020,160.697365"
         style="stroke:#000000" />
      <path
         id="path14980"
         d="M 25.217378,152.361362 29.088765,166.459604"
         style="stroke:#000000" />
      <path
         id="path14982"
         d="M 29.088765,166.459604 38.381926,169.768434"
         style="stroke:#000000" />
      <path
         id="path14984"
         d="M 56.846332,153.527057 57.910789,161.651307"
         style="stroke:#000000" />
      <path
         id="path14986"
         d="M 27.273681,169.058555 29.088765,166.459604"
         style="stroke:#000000" />
      <path
         id="path14988"
         d="M 57.910789,161.651307 101.693833,157.681049"
         style="stroke:#000000" />
      <path
         id="path14990"
         d="M 94.466812,148.726858 101.693833,157.681049"
         style="stroke:#000000" />
      <path
         id="path14992"
         d="M 101.693833,157.681049 103.513739,159.276983"
         style="stroke:#000000" />
      <path
         id="path14994"
         d="M 103.513739,159.276983 122.315652,145.499487"
         style="stroke:#000000" />
      <path
         id="path14996"
         d="M 103.499680,159.780367 103.513739,159.276983"
         style="stroke:#000000" />
      <path
         id="path14998"
         d="M 38.381926,169.768434 56.994207,169.089716"
         style="stroke:#000000" />
      <path
         id="path15000"
         d="M 56.994207,169.089716 57.910789,161.651307"
         style="stroke:#000000" />
      <path
         id="path15002"
         d="M 3.588335,175.326320 27.273681,169.058555"
         style="stroke:#000000" />
      <path
         id="path15004"
         d="M 1.130051,161.107299 1.916647,174.968052"
         style="stroke:#000000" />
      <path
         id="path15006"
         d="M 1.916647,174.968052 3.588335,175.326320"
         style="stroke:#000000" />
      <path
         id="path15008"
         d="M 0.629214,176.573015 1.916647,174.968052"
         style="stroke:#000000" />
      <path
         id="path15010"
         d="M 103.499680,159.780367 106.263558,170.447828"
         style="stroke:#000000" />
      <path
         id="path15012"
         d="M 3.588335,175.326320 21.331675,186.115390"
         style="stroke:#000000" />
      <path
         id="path15014"
         d="M 21.331675,186.115390 25.466621,185.404328"
         style="stroke:#000000" />
      <path
         id="path15016"
         d="M 25.466621,185.404328 27.273681,169.058555"
         style="stroke:#000000" />
      <path
         id="path15018"
         d="M 101.874517,178.048502 106.263558,170.447828"
         style="stroke:#000000" />
      <path
         id="path15020"
         d="M 56.994207,169.089716 61.303213,179.513394"
         style="stroke:#000000" />
      <path
         id="path15022"
         d="M 61.303213,179.513394 62.104983,180.004219"
         style="stroke:#000000" />
      <path
         id="path15024"
         d="M 62.104983,180.004219 103.499680,159.780367"
         style="stroke:#000000" />
      <path
         id="path15026"
         d="M 0.000000,176.919027 0.629214,176.573015"
         style="stroke:#000000" />
      <path
         id="path15028"
         d="M 150.663401,184.583487 164.601020,176.919027"
         style="stroke:#000000" />
      <path
         id="path15030"
         d="M 145.055872,153.607219 145.384914,184.402839"
         style="stroke:#000000" />
      <path
         id="path15032"
         d="M 145.384914,184.402839 150.663401,184.583487"
         style="stroke:#000000" />
      <path
         id="path15034"
         d="M 130.939314,184.303918 139.664828,149.099575"
         style="stroke:#000000" />
      <path
         id="path15036"
         d="M 106.263558,170.447828 126.740459,184.546866"
         style="stroke:#000000" />
      <path
         id="path15038"
         d="M 126.740459,184.546866 130.939314,184.303918"
         style="stroke:#000000" />
      <path
         id="path15040"
         d="M 130.939314,184.303918 139.988459,186.083520"
         style="stroke:#000000" />
      <path
         id="path15042"
         d="M 139.988459,186.083520 145.384914,184.402839"
         style="stroke:#000000" />
      <path
         id="path15044"
         d="M 25.466621,185.404328 34.814838,191.027080"
         style="stroke:#000000" />
      <path
         id="path15046"
         d="M 34.814838,191.027080 38.381926,169.768434"
         style="stroke:#000000" />
      <path
         id="path15048"
         d="M 34.814838,191.027080 38.911691,195.424548"
         style="stroke:#000000" />
      <path
         id="path15050"
         d="M 38.911691,195.424548 61.303213,179.513394"
         style="stroke:#000000" />
      <path
         id="path15052"
         d="M 0.629214,176.573015 10.383473,202.926648"
         style="stroke:#000000" />
      <path
         id="path15054"
         d="M 10.383473,202.926648 21.331675,186.115390"
         style="stroke:#000000" />
      <path
         id="path15056"
         d="M 119.539007,205.608161 126.740459,184.546866"
         style="stroke:#000000" />
      <path
         id="path15058"
         d="M 101.874517,178.048502 116.144392,207.556737"
         style="stroke:#000000" />
      <path
         id="path15060"
         d="M 116.144392,207.556737 119.539007,205.608161"
         style="stroke:#000000" />
      <path
         id="path15062"
         d="M 119.539007,205.608161 134.482678,213.427707"
         style="stroke:#000000" />
      <path
         id="path15064"
         d="M 86.301852,202.400546 101.874517,178.048502"
         style="stroke:#000000" />
      <path
         id="path15066"
         d="M 9.750987,208.454233 10.383473,202.926648"
         style="stroke:#000000" />
      <path
         id="path15068"
         d="M 62.104983,180.004219 78.895821,202.747735"
         style="stroke:#000000" />
      <path
         id="path15070"
         d="M 78.895821,202.747735 86.301852,202.400546"
         style="stroke:#000000" />
      <path
         id="path15072"
         d="M 150.663401,184.583487 164.158384,210.489621"
         style="stroke:#000000" />
      <path
         id="path15074"
         d="M 0.000000,210.475989 2.719650,210.392233"
         style="stroke:#000000" />
      <path
         id="path15076"
         d="M 2.719650,210.392233 9.750987,208.454233"
         style="stroke:#000000" />
      <path
         id="path15078"
         d="M 164.158384,210.489621 164.601020,210.475989"
         style="stroke:#000000" />
      <path
         id="path15080"
         d="M 9.750987,208.454233 16.180896,211.275712"
         style="stroke:#000000" />
      <path
         id="path15082"
         d="M 154.575377,216.194484 164.158384,210.489621"
         style="stroke:#000000" />
      <path
         id="path15084"
         d="M 134.482678,213.427707 142.532645,216.231526"
         style="stroke:#000000" />
      <path
         id="path15086"
         d="M 139.988459,186.083520 142.532645,216.231526"
         style="stroke:#000000" />
      <path
         id="path15088"
         d="M 37.027298,212.596204 38.911691,195.424548"
         style="stroke:#000000" />
      <path
         id="path15090"
         d="M 16.180896,211.275712 36.212433,213.162341"
         style="stroke:#000000" />
      <path
         id="path15092"
         d="M 36.212433,213.162341 37.027298,212.596204"
         style="stroke:#000000" />
      <path
         id="path15094"
         d="M 142.532645,216.231526 143.803829,217.707137"
         style="stroke:#000000" />
      <path
         id="path15096"
         d="M 86.301852,202.400546 103.418780,215.975157"
         style="stroke:#000000" />
      <path
         id="path15098"
         d="M 103.418780,215.975157 116.144392,207.556737"
         style="stroke:#000000" />
      <path
         id="path15100"
         d="M 143.803829,217.707137 146.211842,218.996381"
         style="stroke:#000000" />
      <path
         id="path15102"
         d="M 146.211842,218.996381 154.575377,216.194484"
         style="stroke:#000000" />
      <path
         id="path15104"
         d="M 37.027298,212.596204 64.812656,218.477339"
         style="stroke:#000000" />
      <path
         id="path15106"
         d="M 64.812656,218.477339 78.895821,202.747735"
         style="stroke:#000000" />
      <path
         id="path15108"
         d="M 81.844150,226.953558 98.992782,226.842679"
         style="stroke:#000000" />
      <path
         id="path15110"
         d="M 81.844150,226.953558 93.743240,231.982592"
         style="stroke:#000000" />
      <path
         id="path15112"
         d="M 93.743240,231.982592 98.992782,226.842679"
         style="stroke:#000000" />
      <path
         id="path15114"
         d="M 98.992782,226.842679 104.590224,221.727826"
         style="stroke:#000000" />
      <path
         id="path15116"
         d="M 103.418780,215.975157 104.590224,221.727826"
         style="stroke:#000000" />
      <path
         id="path15118"
         d="M 64.812656,218.477339 65.446533,222.810806"
         style="stroke:#000000" />
      <path
         id="path15120"
         d="M 65.446533,222.810806 81.844150,226.953558"
         style="stroke:#000000" />
      <path
         id="path15122"
         d="M 104.590224,221.727826 111.287751,229.600950"
         style="stroke:#000000" />
      <path
         id="path15124"
         d="M 111.287751,229.600950 134.482678,213.427707"
         style="stroke:#000000" />
      <path
         id="path15126"
         d="M 33.178409,233.468729 36.212433,213.162341"
         style="stroke:#000000" />
      <path
         id="path15128"
         d="M 33.178409,233.468729 51.682862,239.577658"
         style="stroke:#000000" />
      <path
         id="path15130"
         d="M 51.682862,239.577658 66.065805,230.351200"
         style="stroke:#000000" />
      <path
         id="path15132"
         d="M 65.446533,222.810806 66.065805,230.351200"
         style="stroke:#000000" />
      <path
         id="path15134"
         d="M 117.883821,233.944894 143.803829,217.707137"
         style="stroke:#000000" />
      <path
         id="path15136"
         d="M 111.287751,229.600950 113.227769,232.375451"
         style="stroke:#000000" />
      <path
         id="path15138"
         d="M 113.227769,232.375451 117.883821,233.944894"
         style="stroke:#000000" />
      <path
         id="path15140"
         d="M 86.749313,240.039095 93.743240,231.982592"
         style="stroke:#000000" />
      <path
         id="path15142"
         d="M 141.461748,241.188511 146.705713,239.214208"
         style="stroke:#000000" />
      <path
         id="path15144"
         d="M 146.211842,218.996381 146.705713,239.214208"
         style="stroke:#000000" />
      <path
         id="path15146"
         d="M 146.705713,239.214208 147.014704,239.471101"
         style="stroke:#000000" />
      <path
         id="path15148"
         d="M 117.883821,233.944894 127.915379,243.360217"
         style="stroke:#000000" />
      <path
         id="path15150"
         d="M 127.915379,243.360217 127.978921,243.381510"
         style="stroke:#000000" />
      <path
         id="path15152"
         d="M 127.978921,243.381510 141.461748,241.188511"
         style="stroke:#000000" />
      <path
         id="path15154"
         d="M 86.749313,240.039095 101.754421,248.861978"
         style="stroke:#000000" />
      <path
         id="path15156"
         d="M 101.754421,248.861978 105.916074,248.528050"
         style="stroke:#000000" />
      <path
         id="path15158"
         d="M 105.916074,248.528050 113.227769,232.375451"
         style="stroke:#000000" />
      <path
         id="path15160"
         d="M 127.978921,243.381510 130.808207,253.941622"
         style="stroke:#000000" />
      <path
         id="path15162"
         d="M 130.808207,253.941622 138.233811,256.275831"
         style="stroke:#000000" />
      <path
         id="path15164"
         d="M 138.233811,256.275831 141.461748,241.188511"
         style="stroke:#000000" />
      <path
         id="path15166"
         d="M 105.916074,248.528050 106.836521,250.511980"
         style="stroke:#000000" />
      <path
         id="path15168"
         d="M 0.000000,242.917675 7.344920,244.357136"
         style="stroke:#000000" />
      <path
         id="path15170"
         d="M 147.014704,239.471101 164.601020,242.917675"
         style="stroke:#000000" />
      <path
         id="path15172"
         d="M 7.344920,244.357136 7.346720,244.356564"
         style="stroke:#000000" />
      <path
         id="path15174"
         d="M 0.000000,232.446905 7.346720,244.356564"
         style="stroke:#000000" />
      <path
         id="path15176"
         d="M 154.575377,216.194484 164.601020,232.446905"
         style="stroke:#000000" />
      <path
         id="path15178"
         d="M 7.346720,244.356564 7.611224,244.325724"
         style="stroke:#000000" />
      <path
         id="path15180"
         d="M 2.719650,210.392233 7.611224,244.325724"
         style="stroke:#000000" />
      <path
         id="path15182"
         d="M 66.065805,230.351200 75.289407,244.798992"
         style="stroke:#000000" />
      <path
         id="path15184"
         d="M 75.289407,244.798992 86.749313,240.039095"
         style="stroke:#000000" />
      <path
         id="path15186"
         d="M 7.611224,244.325724 12.489506,244.894308"
         style="stroke:#000000" />
      <path
         id="path15188"
         d="M 12.489506,244.894308 16.180896,211.275712"
         style="stroke:#000000" />
      <path
         id="path15190"
         d="M 106.836521,250.511980 118.017383,256.437850"
         style="stroke:#000000" />
      <path
         id="path15192"
         d="M 118.017383,256.437850 127.915379,243.360217"
         style="stroke:#000000" />
      <path
         id="path15194"
         d="M 91.850000,257.117640 101.754421,248.861978"
         style="stroke:#000000" />
      <path
         id="path15196"
         d="M 138.233811,256.275831 138.829571,257.117640"
         style="stroke:#000000" />
      <path
         id="path15198"
         d="M 48.081679,255.710805 51.682862,239.577658"
         style="stroke:#000000" />
      <path
         id="path15200"
         d="M 147.014704,239.471101 149.093618,257.117640"
         style="stroke:#000000" />
      <path
         id="path15202"
         d="M 12.489506,244.894308 22.903997,249.334028"
         style="stroke:#000000" />
      <path
         id="path15204"
         d="M 22.903997,249.334028 33.178409,233.468729"
         style="stroke:#000000" />
      <path
         id="path15206"
         d="M 48.081679,255.710805 50.777208,257.117640"
         style="stroke:#000000" />
      <path
         id="path15208"
         d="M 118.017383,256.437850 118.207281,257.117640"
         style="stroke:#000000" />
      <path
         id="path15210"
         d="M 129.916694,257.117640 130.808207,253.941622"
         style="stroke:#000000" />
      <path
         id="path15212"
         d="M 74.369980,254.944928 75.289407,244.798992"
         style="stroke:#000000" />
      <path
         id="path15214"
         d="M 74.369980,254.944928 86.909477,257.117640"
         style="stroke:#000000" />
      <path
         id="path15216"
         d="M 0.000000,254.428904 7.344920,244.357136"
         style="stroke:#000000" />
      <path
         id="path15218"
         d="M 162.640237,257.117640 164.601020,254.428904"
         style="stroke:#000000" />
      <path
         id="path15220"
         d="M 22.903997,249.334028 26.584770,257.043182"
         style="stroke:#000000" />
      <path
         id="path15222"
         d="M 26.584770,257.043182 48.081679,255.710805"
         style="stroke:#000000" />
      <path
         id="path15224"
         d="M 105.680338,257.117640 106.836521,250.511980"
         style="stroke:#000000" />
      <path
         id="path15226"
         d="M 26.572948,257.117640 26.584770,257.043182"
         style="stroke:#000000" />
      <path
         id="path15228"
         d="M 73.061630,257.117640 74.369980,254.944928"
         style="stroke:#000000" />
      <path
         id="path15230"
         d="M 164.601020,44.489427 164.601020,44.489427"
         style="stroke:#000000" />
    </pattern>
    <linearGradient
       id="linearGradient4970-7">
      <stop
         style="stop-color:#000000;stop-opacity:1;"
         offset="0"
         id="stop4972-7" />
      <stop
         style="stop-color:#000000;stop-opacity:0;"
         offset="1"
         id="stop4974-4" />
    </linearGradient>
  </defs>
  <metadata
     id="metadata7">
    <rdf:RDF>
      <cc:Work
         rdf:about="">
        <dc:format>image/svg+xml</dc:format>
        <dc:type
           rdf:resource="http://purl.org/dc/dcmitype/StillImage" />
        <dc:title></dc:title>
      </cc:Work>
    </rdf:RDF>
  </metadata>
  <g
     inkscape:label="Layer 1"
     inkscape:groupmode="layer"
     id="layer1"
     transform="translate(0,-740.55116)">
    <rect
       style="fill:#ffffff;stroke:#000000;stroke-width:3;stroke-linejoin:miter;stroke-miterlimit:0;stroke-opacity:1;stroke-dasharray:none;fill-opacity:1"
       id="rect3761"
       width="212.81828"
       height="304.33014"
       x="4.2563658"
       y="4.8206697"
       transform="translate(0,740.55116)"
       rx="32.986832"
       ry="32.986832" />
    <rect
       style="stroke-linejoin:miter;stroke-opacity:1;stroke:#000000;stroke-miterlimit:0;stroke-dasharray:none;stroke-width:1.00899999999999990;fill:#adffff;fill-opacity:1"
       id="color_area"
       width="163.59166"
       height="256.10828"
       x="29.805582"
       y="771.5813"
       rx="107.90088"
       ry="0"
       inkscape:label="#rect3763" />
    <text
       xml:space="preserve"
       style="font-size:64px;font-style:normal;font-weight:normal;line-height:125%;letter-spacing:0px;word-spacing:0px;fill:#0000ba;fill-opacity:1;stroke:none;font-family:Sans"
       x="42.19931"
       y="941.17914"
       id="bonus_text"
       sodipodi:linespacing="125%"
       inkscape:label="#text5061"><tspan
         sodipodi:role="line"
         id="tspan5063"
         x="42.19931"
         y="941.17914"
         style="font-size:111px;font-style:normal;font-variant:normal;font-weight:bold;font-stretch:normal;fill:#0000ba;fill-opacity:1;font-family:Comic Sans MS;-inkscape-font-specification:Comic Sans MS Bold">+2</tspan></text>
  </g>
</svg>
